<mxfile host="app.diagrams.net" modified="2024-05-11T03:25:54.029Z" agent="Mozilla/5.0 (Windows NT 10.0; Win64; x64) AppleWebKit/537.36 (KHTML, like Gecko) Chrome/124.0.0.0 Safari/537.36" etag="3IlTzTGzjTi1fKAVIPNF" version="22.1.21" type="device">
  <diagram name="PÃ¡gina-1" id="3DY90yS0I4ROfMc57Hwl">
    <mxGraphModel dx="2336" dy="1990" grid="1" gridSize="10" guides="1" tooltips="1" connect="1" arrows="1" fold="1" page="1" pageScale="1" pageWidth="827" pageHeight="1169" math="0" shadow="0">
      <root>
        <mxCell id="0" />
        <mxCell id="1" parent="0" />
        <mxCell id="u5hN8_Uk0QSI7rOo8P9n-17" value="cadastro" style="shape=umlFrame;whiteSpace=wrap;html=1;pointerEvents=0;fillColor=#0050ef;strokeColor=#001DBC;fontColor=#ffffff;" vertex="1" parent="1">
          <mxGeometry x="-240" width="730" height="700" as="geometry" />
        </mxCell>
        <mxCell id="u5hN8_Uk0QSI7rOo8P9n-20" value="Atendimento" style="shape=umlFrame;whiteSpace=wrap;html=1;pointerEvents=0;fillColor=#0050ef;strokeColor=#001DBC;fontColor=#ffffff;width=80;height=30;" vertex="1" parent="1">
          <mxGeometry x="530" width="600" height="500" as="geometry" />
        </mxCell>
        <mxCell id="u5hN8_Uk0QSI7rOo8P9n-25" value="Estoque" style="shape=umlFrame;whiteSpace=wrap;html=1;pointerEvents=0;width=80;height=30;fillColor=#0050ef;strokeColor=#001DBC;fontColor=#ffffff;" vertex="1" parent="1">
          <mxGeometry x="540" y="530" width="440" height="170" as="geometry" />
        </mxCell>
        <mxCell id="u5hN8_Uk0QSI7rOo8P9n-40" value="&amp;lt;&amp;lt;valueobject&amp;gt;&amp;gt;&lt;br style=&quot;border-color: var(--border-color); font-weight: 400;&quot;&gt;&lt;span style=&quot;font-weight: 400;&quot;&gt;Perfil&lt;/span&gt;" style="swimlane;fontStyle=1;align=center;verticalAlign=top;childLayout=stackLayout;horizontal=1;startSize=40;horizontalStack=0;resizeParent=1;resizeParentMax=0;resizeLast=0;collapsible=1;marginBottom=0;whiteSpace=wrap;html=1;fillColor=#1ba1e2;strokeColor=#006EAF;fontColor=#ffffff;" vertex="1" parent="1">
          <mxGeometry x="-150" y="150" width="160" height="152" as="geometry" />
        </mxCell>
        <mxCell id="u5hN8_Uk0QSI7rOo8P9n-46" value="- fornecedor: boolean&lt;span style=&quot;white-space: pre;&quot;&gt;&#x9;&lt;/span&gt;" style="text;strokeColor=none;fillColor=none;align=left;verticalAlign=top;spacingLeft=4;spacingRight=4;overflow=hidden;rotatable=0;points=[[0,0.5],[1,0.5]];portConstraint=eastwest;whiteSpace=wrap;html=1;" vertex="1" parent="u5hN8_Uk0QSI7rOo8P9n-40">
          <mxGeometry y="40" width="160" height="26" as="geometry" />
        </mxCell>
        <mxCell id="u5hN8_Uk0QSI7rOo8P9n-45" value="- cliente: boolean" style="text;strokeColor=none;fillColor=none;align=left;verticalAlign=top;spacingLeft=4;spacingRight=4;overflow=hidden;rotatable=0;points=[[0,0.5],[1,0.5]];portConstraint=eastwest;whiteSpace=wrap;html=1;" vertex="1" parent="u5hN8_Uk0QSI7rOo8P9n-40">
          <mxGeometry y="66" width="160" height="26" as="geometry" />
        </mxCell>
        <mxCell id="u5hN8_Uk0QSI7rOo8P9n-41" value="- prestador: boolean" style="text;strokeColor=none;fillColor=none;align=left;verticalAlign=top;spacingLeft=4;spacingRight=4;overflow=hidden;rotatable=0;points=[[0,0.5],[1,0.5]];portConstraint=eastwest;whiteSpace=wrap;html=1;" vertex="1" parent="u5hN8_Uk0QSI7rOo8P9n-40">
          <mxGeometry y="92" width="160" height="26" as="geometry" />
        </mxCell>
        <mxCell id="u5hN8_Uk0QSI7rOo8P9n-42" value="" style="line;strokeWidth=1;fillColor=none;align=left;verticalAlign=middle;spacingTop=-1;spacingLeft=3;spacingRight=3;rotatable=0;labelPosition=right;points=[];portConstraint=eastwest;strokeColor=inherit;" vertex="1" parent="u5hN8_Uk0QSI7rOo8P9n-40">
          <mxGeometry y="118" width="160" height="8" as="geometry" />
        </mxCell>
        <mxCell id="u5hN8_Uk0QSI7rOo8P9n-43" value="+ method(type): type" style="text;strokeColor=none;fillColor=none;align=left;verticalAlign=top;spacingLeft=4;spacingRight=4;overflow=hidden;rotatable=0;points=[[0,0.5],[1,0.5]];portConstraint=eastwest;whiteSpace=wrap;html=1;" vertex="1" parent="u5hN8_Uk0QSI7rOo8P9n-40">
          <mxGeometry y="126" width="160" height="26" as="geometry" />
        </mxCell>
        <mxCell id="u5hN8_Uk0QSI7rOo8P9n-118" style="edgeStyle=orthogonalEdgeStyle;rounded=0;orthogonalLoop=1;jettySize=auto;html=1;entryX=1;entryY=0.5;entryDx=0;entryDy=0;exitX=0;exitY=0.5;exitDx=0;exitDy=0;" edge="1" parent="1" source="u5hN8_Uk0QSI7rOo8P9n-108" target="u5hN8_Uk0QSI7rOo8P9n-85">
          <mxGeometry relative="1" as="geometry" />
        </mxCell>
        <mxCell id="u5hN8_Uk0QSI7rOo8P9n-121" value="Solicitante" style="edgeLabel;html=1;align=center;verticalAlign=middle;resizable=0;points=[];" vertex="1" connectable="0" parent="u5hN8_Uk0QSI7rOo8P9n-118">
          <mxGeometry x="0.5632" y="-3" relative="1" as="geometry">
            <mxPoint as="offset" />
          </mxGeometry>
        </mxCell>
        <mxCell id="u5hN8_Uk0QSI7rOo8P9n-119" style="edgeStyle=orthogonalEdgeStyle;rounded=0;orthogonalLoop=1;jettySize=auto;html=1;entryX=1;entryY=0.5;entryDx=0;entryDy=0;exitX=0;exitY=0.5;exitDx=0;exitDy=0;" edge="1" parent="1" source="u5hN8_Uk0QSI7rOo8P9n-108" target="u5hN8_Uk0QSI7rOo8P9n-95">
          <mxGeometry relative="1" as="geometry" />
        </mxCell>
        <mxCell id="u5hN8_Uk0QSI7rOo8P9n-120" value="Paciente" style="edgeLabel;html=1;align=center;verticalAlign=middle;resizable=0;points=[];" vertex="1" connectable="0" parent="u5hN8_Uk0QSI7rOo8P9n-119">
          <mxGeometry x="-0.0717" y="-4" relative="1" as="geometry">
            <mxPoint as="offset" />
          </mxGeometry>
        </mxCell>
        <mxCell id="u5hN8_Uk0QSI7rOo8P9n-133" style="edgeStyle=orthogonalEdgeStyle;rounded=0;orthogonalLoop=1;jettySize=auto;html=1;entryX=0.5;entryY=0;entryDx=0;entryDy=0;" edge="1" parent="1" source="u5hN8_Uk0QSI7rOo8P9n-49" target="u5hN8_Uk0QSI7rOo8P9n-123">
          <mxGeometry relative="1" as="geometry" />
        </mxCell>
        <mxCell id="u5hN8_Uk0QSI7rOo8P9n-134" style="edgeStyle=orthogonalEdgeStyle;rounded=0;orthogonalLoop=1;jettySize=auto;html=1;exitX=0.62;exitY=0.978;exitDx=0;exitDy=0;exitPerimeter=0;" edge="1" parent="1" source="u5hN8_Uk0QSI7rOo8P9n-52" target="u5hN8_Uk0QSI7rOo8P9n-109">
          <mxGeometry relative="1" as="geometry" />
        </mxCell>
        <mxCell id="u5hN8_Uk0QSI7rOo8P9n-49" value="Atendimento" style="swimlane;fontStyle=1;align=center;verticalAlign=top;childLayout=stackLayout;horizontal=1;startSize=26;horizontalStack=0;resizeParent=1;resizeParentMax=0;resizeLast=0;collapsible=1;marginBottom=0;whiteSpace=wrap;html=1;fillColor=#1ba1e2;strokeColor=#006EAF;fontColor=#ffffff;" vertex="1" parent="1">
          <mxGeometry x="610" y="29" width="160" height="190" as="geometry" />
        </mxCell>
        <mxCell id="u5hN8_Uk0QSI7rOo8P9n-50" value="- id: integer" style="text;strokeColor=none;fillColor=none;align=left;verticalAlign=top;spacingLeft=4;spacingRight=4;overflow=hidden;rotatable=0;points=[[0,0.5],[1,0.5]];portConstraint=eastwest;whiteSpace=wrap;html=1;" vertex="1" parent="u5hN8_Uk0QSI7rOo8P9n-49">
          <mxGeometry y="26" width="160" height="26" as="geometry" />
        </mxCell>
        <mxCell id="u5hN8_Uk0QSI7rOo8P9n-106" value="- descricao: string" style="text;strokeColor=none;fillColor=none;align=left;verticalAlign=top;spacingLeft=4;spacingRight=4;overflow=hidden;rotatable=0;points=[[0,0.5],[1,0.5]];portConstraint=eastwest;whiteSpace=wrap;html=1;" vertex="1" parent="u5hN8_Uk0QSI7rOo8P9n-49">
          <mxGeometry y="52" width="160" height="26" as="geometry" />
        </mxCell>
        <mxCell id="u5hN8_Uk0QSI7rOo8P9n-107" value="- data: Date" style="text;strokeColor=none;fillColor=none;align=left;verticalAlign=top;spacingLeft=4;spacingRight=4;overflow=hidden;rotatable=0;points=[[0,0.5],[1,0.5]];portConstraint=eastwest;whiteSpace=wrap;html=1;" vertex="1" parent="u5hN8_Uk0QSI7rOo8P9n-49">
          <mxGeometry y="78" width="160" height="26" as="geometry" />
        </mxCell>
        <mxCell id="u5hN8_Uk0QSI7rOo8P9n-108" value="- hora: Time" style="text;strokeColor=none;fillColor=none;align=left;verticalAlign=top;spacingLeft=4;spacingRight=4;overflow=hidden;rotatable=0;points=[[0,0.5],[1,0.5]];portConstraint=eastwest;whiteSpace=wrap;html=1;" vertex="1" parent="u5hN8_Uk0QSI7rOo8P9n-49">
          <mxGeometry y="104" width="160" height="26" as="geometry" />
        </mxCell>
        <mxCell id="u5hN8_Uk0QSI7rOo8P9n-122" value="- emergencia: boolean" style="text;strokeColor=none;fillColor=none;align=left;verticalAlign=top;spacingLeft=4;spacingRight=4;overflow=hidden;rotatable=0;points=[[0,0.5],[1,0.5]];portConstraint=eastwest;whiteSpace=wrap;html=1;" vertex="1" parent="u5hN8_Uk0QSI7rOo8P9n-49">
          <mxGeometry y="130" width="160" height="26" as="geometry" />
        </mxCell>
        <mxCell id="u5hN8_Uk0QSI7rOo8P9n-51" value="" style="line;strokeWidth=1;fillColor=none;align=left;verticalAlign=middle;spacingTop=-1;spacingLeft=3;spacingRight=3;rotatable=0;labelPosition=right;points=[];portConstraint=eastwest;strokeColor=inherit;" vertex="1" parent="u5hN8_Uk0QSI7rOo8P9n-49">
          <mxGeometry y="156" width="160" height="8" as="geometry" />
        </mxCell>
        <mxCell id="u5hN8_Uk0QSI7rOo8P9n-52" value="+ method(type): type" style="text;strokeColor=none;fillColor=none;align=left;verticalAlign=top;spacingLeft=4;spacingRight=4;overflow=hidden;rotatable=0;points=[[0,0.5],[1,0.5]];portConstraint=eastwest;whiteSpace=wrap;html=1;" vertex="1" parent="u5hN8_Uk0QSI7rOo8P9n-49">
          <mxGeometry y="164" width="160" height="26" as="geometry" />
        </mxCell>
        <mxCell id="u5hN8_Uk0QSI7rOo8P9n-53" value="Compra" style="swimlane;fontStyle=1;align=center;verticalAlign=top;childLayout=stackLayout;horizontal=1;startSize=26;horizontalStack=0;resizeParent=1;resizeParentMax=0;resizeLast=0;collapsible=1;marginBottom=0;whiteSpace=wrap;html=1;fillColor=#1ba1e2;strokeColor=#006EAF;fontColor=#ffffff;" vertex="1" parent="1">
          <mxGeometry x="570" y="580" width="160" height="86" as="geometry" />
        </mxCell>
        <mxCell id="u5hN8_Uk0QSI7rOo8P9n-54" value="+ field: type" style="text;strokeColor=none;fillColor=none;align=left;verticalAlign=top;spacingLeft=4;spacingRight=4;overflow=hidden;rotatable=0;points=[[0,0.5],[1,0.5]];portConstraint=eastwest;whiteSpace=wrap;html=1;" vertex="1" parent="u5hN8_Uk0QSI7rOo8P9n-53">
          <mxGeometry y="26" width="160" height="26" as="geometry" />
        </mxCell>
        <mxCell id="u5hN8_Uk0QSI7rOo8P9n-55" value="" style="line;strokeWidth=1;fillColor=none;align=left;verticalAlign=middle;spacingTop=-1;spacingLeft=3;spacingRight=3;rotatable=0;labelPosition=right;points=[];portConstraint=eastwest;strokeColor=inherit;" vertex="1" parent="u5hN8_Uk0QSI7rOo8P9n-53">
          <mxGeometry y="52" width="160" height="8" as="geometry" />
        </mxCell>
        <mxCell id="u5hN8_Uk0QSI7rOo8P9n-56" value="+ method(type): type" style="text;strokeColor=none;fillColor=none;align=left;verticalAlign=top;spacingLeft=4;spacingRight=4;overflow=hidden;rotatable=0;points=[[0,0.5],[1,0.5]];portConstraint=eastwest;whiteSpace=wrap;html=1;" vertex="1" parent="u5hN8_Uk0QSI7rOo8P9n-53">
          <mxGeometry y="60" width="160" height="26" as="geometry" />
        </mxCell>
        <mxCell id="u5hN8_Uk0QSI7rOo8P9n-57" value="Venda" style="swimlane;fontStyle=1;align=center;verticalAlign=top;childLayout=stackLayout;horizontal=1;startSize=26;horizontalStack=0;resizeParent=1;resizeParentMax=0;resizeLast=0;collapsible=1;marginBottom=0;whiteSpace=wrap;html=1;fillColor=#1ba1e2;strokeColor=#006EAF;fontColor=#ffffff;" vertex="1" parent="1">
          <mxGeometry x="760" y="580" width="160" height="86" as="geometry" />
        </mxCell>
        <mxCell id="u5hN8_Uk0QSI7rOo8P9n-58" value="+ field: type" style="text;strokeColor=none;fillColor=none;align=left;verticalAlign=top;spacingLeft=4;spacingRight=4;overflow=hidden;rotatable=0;points=[[0,0.5],[1,0.5]];portConstraint=eastwest;whiteSpace=wrap;html=1;" vertex="1" parent="u5hN8_Uk0QSI7rOo8P9n-57">
          <mxGeometry y="26" width="160" height="26" as="geometry" />
        </mxCell>
        <mxCell id="u5hN8_Uk0QSI7rOo8P9n-59" value="" style="line;strokeWidth=1;fillColor=none;align=left;verticalAlign=middle;spacingTop=-1;spacingLeft=3;spacingRight=3;rotatable=0;labelPosition=right;points=[];portConstraint=eastwest;strokeColor=inherit;" vertex="1" parent="u5hN8_Uk0QSI7rOo8P9n-57">
          <mxGeometry y="52" width="160" height="8" as="geometry" />
        </mxCell>
        <mxCell id="u5hN8_Uk0QSI7rOo8P9n-60" value="+ method(type): type" style="text;strokeColor=none;fillColor=none;align=left;verticalAlign=top;spacingLeft=4;spacingRight=4;overflow=hidden;rotatable=0;points=[[0,0.5],[1,0.5]];portConstraint=eastwest;whiteSpace=wrap;html=1;" vertex="1" parent="u5hN8_Uk0QSI7rOo8P9n-57">
          <mxGeometry y="60" width="160" height="26" as="geometry" />
        </mxCell>
        <mxCell id="u5hN8_Uk0QSI7rOo8P9n-69" value="Empresa" style="swimlane;fontStyle=1;align=center;verticalAlign=top;childLayout=stackLayout;horizontal=1;startSize=26;horizontalStack=0;resizeParent=1;resizeParentMax=0;resizeLast=0;collapsible=1;marginBottom=0;whiteSpace=wrap;html=1;fillColor=#f8cecc;strokeColor=#b85450;" vertex="1" parent="1">
          <mxGeometry x="-150" y="29" width="160" height="86" as="geometry" />
        </mxCell>
        <mxCell id="u5hN8_Uk0QSI7rOo8P9n-70" value="+ field: type" style="text;strokeColor=none;fillColor=none;align=left;verticalAlign=top;spacingLeft=4;spacingRight=4;overflow=hidden;rotatable=0;points=[[0,0.5],[1,0.5]];portConstraint=eastwest;whiteSpace=wrap;html=1;" vertex="1" parent="u5hN8_Uk0QSI7rOo8P9n-69">
          <mxGeometry y="26" width="160" height="26" as="geometry" />
        </mxCell>
        <mxCell id="u5hN8_Uk0QSI7rOo8P9n-71" value="" style="line;strokeWidth=1;fillColor=none;align=left;verticalAlign=middle;spacingTop=-1;spacingLeft=3;spacingRight=3;rotatable=0;labelPosition=right;points=[];portConstraint=eastwest;strokeColor=inherit;" vertex="1" parent="u5hN8_Uk0QSI7rOo8P9n-69">
          <mxGeometry y="52" width="160" height="8" as="geometry" />
        </mxCell>
        <mxCell id="u5hN8_Uk0QSI7rOo8P9n-72" value="+ method(type): type" style="text;strokeColor=none;fillColor=none;align=left;verticalAlign=top;spacingLeft=4;spacingRight=4;overflow=hidden;rotatable=0;points=[[0,0.5],[1,0.5]];portConstraint=eastwest;whiteSpace=wrap;html=1;" vertex="1" parent="u5hN8_Uk0QSI7rOo8P9n-69">
          <mxGeometry y="60" width="160" height="26" as="geometry" />
        </mxCell>
        <mxCell id="u5hN8_Uk0QSI7rOo8P9n-73" value="Cadastro" style="swimlane;fontStyle=1;align=center;verticalAlign=top;childLayout=stackLayout;horizontal=1;startSize=26;horizontalStack=0;resizeParent=1;resizeParentMax=0;resizeLast=0;collapsible=1;marginBottom=0;whiteSpace=wrap;html=1;fillColor=#1ba1e2;strokeColor=#006EAF;fontColor=#ffffff;" vertex="1" parent="1">
          <mxGeometry x="150" y="240" width="160" height="112" as="geometry" />
        </mxCell>
        <mxCell id="u5hN8_Uk0QSI7rOo8P9n-74" value="- id: integer&lt;br&gt;" style="text;strokeColor=none;fillColor=none;align=left;verticalAlign=top;spacingLeft=4;spacingRight=4;overflow=hidden;rotatable=0;points=[[0,0.5],[1,0.5]];portConstraint=eastwest;whiteSpace=wrap;html=1;" vertex="1" parent="u5hN8_Uk0QSI7rOo8P9n-73">
          <mxGeometry y="26" width="160" height="26" as="geometry" />
        </mxCell>
        <mxCell id="u5hN8_Uk0QSI7rOo8P9n-85" value="- nome: string" style="text;strokeColor=none;fillColor=none;align=left;verticalAlign=top;spacingLeft=4;spacingRight=4;overflow=hidden;rotatable=0;points=[[0,0.5],[1,0.5]];portConstraint=eastwest;whiteSpace=wrap;html=1;" vertex="1" parent="u5hN8_Uk0QSI7rOo8P9n-73">
          <mxGeometry y="52" width="160" height="26" as="geometry" />
        </mxCell>
        <mxCell id="u5hN8_Uk0QSI7rOo8P9n-75" value="" style="line;strokeWidth=1;fillColor=none;align=left;verticalAlign=middle;spacingTop=-1;spacingLeft=3;spacingRight=3;rotatable=0;labelPosition=right;points=[];portConstraint=eastwest;strokeColor=inherit;" vertex="1" parent="u5hN8_Uk0QSI7rOo8P9n-73">
          <mxGeometry y="78" width="160" height="8" as="geometry" />
        </mxCell>
        <mxCell id="u5hN8_Uk0QSI7rOo8P9n-76" value="+ method(type): type" style="text;strokeColor=none;fillColor=none;align=left;verticalAlign=top;spacingLeft=4;spacingRight=4;overflow=hidden;rotatable=0;points=[[0,0.5],[1,0.5]];portConstraint=eastwest;whiteSpace=wrap;html=1;" vertex="1" parent="u5hN8_Uk0QSI7rOo8P9n-73">
          <mxGeometry y="86" width="160" height="26" as="geometry" />
        </mxCell>
        <mxCell id="u5hN8_Uk0QSI7rOo8P9n-80" value="ProdutoServiÃ§o" style="swimlane;fontStyle=1;align=center;verticalAlign=top;childLayout=stackLayout;horizontal=1;startSize=26;horizontalStack=0;resizeParent=1;resizeParentMax=0;resizeLast=0;collapsible=1;marginBottom=0;whiteSpace=wrap;html=1;fillColor=#1ba1e2;strokeColor=#006EAF;fontColor=#ffffff;" vertex="1" parent="1">
          <mxGeometry x="140" y="35" width="160" height="164" as="geometry">
            <mxRectangle x="260" y="160" width="90" height="30" as="alternateBounds" />
          </mxGeometry>
        </mxCell>
        <mxCell id="u5hN8_Uk0QSI7rOo8P9n-81" value="- id: integer" style="text;strokeColor=none;fillColor=none;align=left;verticalAlign=top;spacingLeft=4;spacingRight=4;overflow=hidden;rotatable=0;points=[[0,0.5],[1,0.5]];portConstraint=eastwest;whiteSpace=wrap;html=1;" vertex="1" parent="u5hN8_Uk0QSI7rOo8P9n-80">
          <mxGeometry y="26" width="160" height="26" as="geometry" />
        </mxCell>
        <mxCell id="u5hN8_Uk0QSI7rOo8P9n-92" value="- servico: boolean" style="text;strokeColor=none;fillColor=none;align=left;verticalAlign=top;spacingLeft=4;spacingRight=4;overflow=hidden;rotatable=0;points=[[0,0.5],[1,0.5]];portConstraint=eastwest;whiteSpace=wrap;html=1;" vertex="1" parent="u5hN8_Uk0QSI7rOo8P9n-80">
          <mxGeometry y="52" width="160" height="26" as="geometry" />
        </mxCell>
        <mxCell id="u5hN8_Uk0QSI7rOo8P9n-93" value="- valor: double" style="text;strokeColor=none;fillColor=none;align=left;verticalAlign=top;spacingLeft=4;spacingRight=4;overflow=hidden;rotatable=0;points=[[0,0.5],[1,0.5]];portConstraint=eastwest;whiteSpace=wrap;html=1;" vertex="1" parent="u5hN8_Uk0QSI7rOo8P9n-80">
          <mxGeometry y="78" width="160" height="26" as="geometry" />
        </mxCell>
        <mxCell id="u5hN8_Uk0QSI7rOo8P9n-94" value="- nome: string" style="text;strokeColor=none;fillColor=none;align=left;verticalAlign=top;spacingLeft=4;spacingRight=4;overflow=hidden;rotatable=0;points=[[0,0.5],[1,0.5]];portConstraint=eastwest;whiteSpace=wrap;html=1;" vertex="1" parent="u5hN8_Uk0QSI7rOo8P9n-80">
          <mxGeometry y="104" width="160" height="26" as="geometry" />
        </mxCell>
        <mxCell id="u5hN8_Uk0QSI7rOo8P9n-82" value="" style="line;strokeWidth=1;fillColor=none;align=left;verticalAlign=middle;spacingTop=-1;spacingLeft=3;spacingRight=3;rotatable=0;labelPosition=right;points=[];portConstraint=eastwest;strokeColor=inherit;" vertex="1" parent="u5hN8_Uk0QSI7rOo8P9n-80">
          <mxGeometry y="130" width="160" height="8" as="geometry" />
        </mxCell>
        <mxCell id="u5hN8_Uk0QSI7rOo8P9n-83" value="+ method(type): type" style="text;strokeColor=none;fillColor=none;align=left;verticalAlign=top;spacingLeft=4;spacingRight=4;overflow=hidden;rotatable=0;points=[[0,0.5],[1,0.5]];portConstraint=eastwest;whiteSpace=wrap;html=1;" vertex="1" parent="u5hN8_Uk0QSI7rOo8P9n-80">
          <mxGeometry y="138" width="160" height="26" as="geometry" />
        </mxCell>
        <mxCell id="u5hN8_Uk0QSI7rOo8P9n-86" value="Endereco" style="swimlane;fontStyle=1;align=center;verticalAlign=top;childLayout=stackLayout;horizontal=1;startSize=26;horizontalStack=0;resizeParent=1;resizeParentMax=0;resizeLast=0;collapsible=1;marginBottom=0;whiteSpace=wrap;html=1;fillColor=#1ba1e2;strokeColor=#006EAF;fontColor=#ffffff;" vertex="1" parent="1">
          <mxGeometry x="-150" y="326" width="160" height="112" as="geometry" />
        </mxCell>
        <mxCell id="u5hN8_Uk0QSI7rOo8P9n-87" value="- logradouro: string" style="text;strokeColor=none;fillColor=none;align=left;verticalAlign=top;spacingLeft=4;spacingRight=4;overflow=hidden;rotatable=0;points=[[0,0.5],[1,0.5]];portConstraint=eastwest;whiteSpace=wrap;html=1;" vertex="1" parent="u5hN8_Uk0QSI7rOo8P9n-86">
          <mxGeometry y="26" width="160" height="26" as="geometry" />
        </mxCell>
        <mxCell id="u5hN8_Uk0QSI7rOo8P9n-88" value="- numero: string" style="text;strokeColor=none;fillColor=none;align=left;verticalAlign=top;spacingLeft=4;spacingRight=4;overflow=hidden;rotatable=0;points=[[0,0.5],[1,0.5]];portConstraint=eastwest;whiteSpace=wrap;html=1;" vertex="1" parent="u5hN8_Uk0QSI7rOo8P9n-86">
          <mxGeometry y="52" width="160" height="26" as="geometry" />
        </mxCell>
        <mxCell id="u5hN8_Uk0QSI7rOo8P9n-89" value="" style="line;strokeWidth=1;fillColor=none;align=left;verticalAlign=middle;spacingTop=-1;spacingLeft=3;spacingRight=3;rotatable=0;labelPosition=right;points=[];portConstraint=eastwest;strokeColor=inherit;" vertex="1" parent="u5hN8_Uk0QSI7rOo8P9n-86">
          <mxGeometry y="78" width="160" height="8" as="geometry" />
        </mxCell>
        <mxCell id="u5hN8_Uk0QSI7rOo8P9n-90" value="+ method(type): type" style="text;strokeColor=none;fillColor=none;align=left;verticalAlign=top;spacingLeft=4;spacingRight=4;overflow=hidden;rotatable=0;points=[[0,0.5],[1,0.5]];portConstraint=eastwest;whiteSpace=wrap;html=1;" vertex="1" parent="u5hN8_Uk0QSI7rOo8P9n-86">
          <mxGeometry y="86" width="160" height="26" as="geometry" />
        </mxCell>
        <mxCell id="u5hN8_Uk0QSI7rOo8P9n-99" value="&amp;lt;&amp;lt;enum&amp;gt;&amp;gt;&lt;br&gt;Especie" style="swimlane;fontStyle=1;align=center;verticalAlign=top;childLayout=stackLayout;horizontal=1;startSize=40;horizontalStack=0;resizeParent=1;resizeParentMax=0;resizeLast=0;collapsible=1;marginBottom=0;whiteSpace=wrap;html=1;fillColor=#ffe6cc;strokeColor=#d79b00;" vertex="1" parent="1">
          <mxGeometry x="45" y="430" width="160" height="126" as="geometry" />
        </mxCell>
        <mxCell id="u5hN8_Uk0QSI7rOo8P9n-100" value="- GATO: Enum" style="text;strokeColor=none;fillColor=none;align=left;verticalAlign=top;spacingLeft=4;spacingRight=4;overflow=hidden;rotatable=0;points=[[0,0.5],[1,0.5]];portConstraint=eastwest;whiteSpace=wrap;html=1;" vertex="1" parent="u5hN8_Uk0QSI7rOo8P9n-99">
          <mxGeometry y="40" width="160" height="26" as="geometry" />
        </mxCell>
        <mxCell id="u5hN8_Uk0QSI7rOo8P9n-103" value="- CACHORRO: Enum" style="text;strokeColor=none;fillColor=none;align=left;verticalAlign=top;spacingLeft=4;spacingRight=4;overflow=hidden;rotatable=0;points=[[0,0.5],[1,0.5]];portConstraint=eastwest;whiteSpace=wrap;html=1;" vertex="1" parent="u5hN8_Uk0QSI7rOo8P9n-99">
          <mxGeometry y="66" width="160" height="26" as="geometry" />
        </mxCell>
        <mxCell id="u5hN8_Uk0QSI7rOo8P9n-104" value="- COBRA: Enum" style="text;strokeColor=none;fillColor=none;align=left;verticalAlign=top;spacingLeft=4;spacingRight=4;overflow=hidden;rotatable=0;points=[[0,0.5],[1,0.5]];portConstraint=eastwest;whiteSpace=wrap;html=1;" vertex="1" parent="u5hN8_Uk0QSI7rOo8P9n-99">
          <mxGeometry y="92" width="160" height="26" as="geometry" />
        </mxCell>
        <mxCell id="u5hN8_Uk0QSI7rOo8P9n-101" value="" style="line;strokeWidth=1;fillColor=none;align=left;verticalAlign=middle;spacingTop=-1;spacingLeft=3;spacingRight=3;rotatable=0;labelPosition=right;points=[];portConstraint=eastwest;strokeColor=inherit;" vertex="1" parent="u5hN8_Uk0QSI7rOo8P9n-99">
          <mxGeometry y="118" width="160" height="8" as="geometry" />
        </mxCell>
        <mxCell id="u5hN8_Uk0QSI7rOo8P9n-105" style="edgeStyle=orthogonalEdgeStyle;rounded=0;orthogonalLoop=1;jettySize=auto;html=1;entryX=1;entryY=0.5;entryDx=0;entryDy=0;" edge="1" parent="1" source="u5hN8_Uk0QSI7rOo8P9n-97" target="u5hN8_Uk0QSI7rOo8P9n-99">
          <mxGeometry relative="1" as="geometry" />
        </mxCell>
        <mxCell id="u5hN8_Uk0QSI7rOo8P9n-109" value="&amp;lt;&amp;lt;enum&amp;gt;&amp;gt;&lt;br&gt;AtendimentoStatus" style="swimlane;fontStyle=1;align=center;verticalAlign=top;childLayout=stackLayout;horizontal=1;startSize=40;horizontalStack=0;resizeParent=1;resizeParentMax=0;resizeLast=0;collapsible=1;marginBottom=0;whiteSpace=wrap;html=1;fillColor=#ffe6cc;strokeColor=#d79b00;" vertex="1" parent="1">
          <mxGeometry x="740" y="274" width="160" height="152" as="geometry" />
        </mxCell>
        <mxCell id="u5hN8_Uk0QSI7rOo8P9n-110" value="- AGENDAMENTO: Enum" style="text;strokeColor=none;fillColor=none;align=left;verticalAlign=top;spacingLeft=4;spacingRight=4;overflow=hidden;rotatable=0;points=[[0,0.5],[1,0.5]];portConstraint=eastwest;whiteSpace=wrap;html=1;" vertex="1" parent="u5hN8_Uk0QSI7rOo8P9n-109">
          <mxGeometry y="40" width="160" height="26" as="geometry" />
        </mxCell>
        <mxCell id="u5hN8_Uk0QSI7rOo8P9n-111" value="- EM_EXECUCAO: Enum" style="text;strokeColor=none;fillColor=none;align=left;verticalAlign=top;spacingLeft=4;spacingRight=4;overflow=hidden;rotatable=0;points=[[0,0.5],[1,0.5]];portConstraint=eastwest;whiteSpace=wrap;html=1;" vertex="1" parent="u5hN8_Uk0QSI7rOo8P9n-109">
          <mxGeometry y="66" width="160" height="26" as="geometry" />
        </mxCell>
        <mxCell id="u5hN8_Uk0QSI7rOo8P9n-114" value="- CONCLUIDO: Enum" style="text;strokeColor=none;fillColor=none;align=left;verticalAlign=top;spacingLeft=4;spacingRight=4;overflow=hidden;rotatable=0;points=[[0,0.5],[1,0.5]];portConstraint=eastwest;whiteSpace=wrap;html=1;" vertex="1" parent="u5hN8_Uk0QSI7rOo8P9n-109">
          <mxGeometry y="92" width="160" height="26" as="geometry" />
        </mxCell>
        <mxCell id="u5hN8_Uk0QSI7rOo8P9n-112" value="- CANCELADO: Enum" style="text;strokeColor=none;fillColor=none;align=left;verticalAlign=top;spacingLeft=4;spacingRight=4;overflow=hidden;rotatable=0;points=[[0,0.5],[1,0.5]];portConstraint=eastwest;whiteSpace=wrap;html=1;" vertex="1" parent="u5hN8_Uk0QSI7rOo8P9n-109">
          <mxGeometry y="118" width="160" height="26" as="geometry" />
        </mxCell>
        <mxCell id="u5hN8_Uk0QSI7rOo8P9n-113" value="" style="line;strokeWidth=1;fillColor=none;align=left;verticalAlign=middle;spacingTop=-1;spacingLeft=3;spacingRight=3;rotatable=0;labelPosition=right;points=[];portConstraint=eastwest;strokeColor=inherit;" vertex="1" parent="u5hN8_Uk0QSI7rOo8P9n-109">
          <mxGeometry y="144" width="160" height="8" as="geometry" />
        </mxCell>
        <mxCell id="u5hN8_Uk0QSI7rOo8P9n-61" value="Animal" style="swimlane;fontStyle=1;align=center;verticalAlign=top;childLayout=stackLayout;horizontal=1;startSize=26;horizontalStack=0;resizeParent=1;resizeParentMax=0;resizeLast=0;collapsible=1;marginBottom=0;whiteSpace=wrap;html=1;fillColor=#1ba1e2;strokeColor=#006EAF;fontColor=#ffffff;" vertex="1" parent="1">
          <mxGeometry x="270" y="380" width="160" height="138" as="geometry" />
        </mxCell>
        <mxCell id="u5hN8_Uk0QSI7rOo8P9n-95" value="- id: integer" style="text;strokeColor=none;fillColor=none;align=left;verticalAlign=top;spacingLeft=4;spacingRight=4;overflow=hidden;rotatable=0;points=[[0,0.5],[1,0.5]];portConstraint=eastwest;whiteSpace=wrap;html=1;" vertex="1" parent="u5hN8_Uk0QSI7rOo8P9n-61">
          <mxGeometry y="26" width="160" height="26" as="geometry" />
        </mxCell>
        <mxCell id="u5hN8_Uk0QSI7rOo8P9n-97" value="- nome: string" style="text;strokeColor=none;fillColor=none;align=left;verticalAlign=top;spacingLeft=4;spacingRight=4;overflow=hidden;rotatable=0;points=[[0,0.5],[1,0.5]];portConstraint=eastwest;whiteSpace=wrap;html=1;" vertex="1" parent="u5hN8_Uk0QSI7rOo8P9n-61">
          <mxGeometry y="52" width="160" height="26" as="geometry" />
        </mxCell>
        <mxCell id="u5hN8_Uk0QSI7rOo8P9n-96" value="- aniversario: Date" style="text;strokeColor=none;fillColor=none;align=left;verticalAlign=top;spacingLeft=4;spacingRight=4;overflow=hidden;rotatable=0;points=[[0,0.5],[1,0.5]];portConstraint=eastwest;whiteSpace=wrap;html=1;" vertex="1" parent="u5hN8_Uk0QSI7rOo8P9n-61">
          <mxGeometry y="78" width="160" height="26" as="geometry" />
        </mxCell>
        <mxCell id="u5hN8_Uk0QSI7rOo8P9n-63" value="" style="line;strokeWidth=1;fillColor=none;align=left;verticalAlign=middle;spacingTop=-1;spacingLeft=3;spacingRight=3;rotatable=0;labelPosition=right;points=[];portConstraint=eastwest;strokeColor=inherit;" vertex="1" parent="u5hN8_Uk0QSI7rOo8P9n-61">
          <mxGeometry y="104" width="160" height="8" as="geometry" />
        </mxCell>
        <mxCell id="u5hN8_Uk0QSI7rOo8P9n-64" value="+ method(type): type" style="text;strokeColor=none;fillColor=none;align=left;verticalAlign=top;spacingLeft=4;spacingRight=4;overflow=hidden;rotatable=0;points=[[0,0.5],[1,0.5]];portConstraint=eastwest;whiteSpace=wrap;html=1;" vertex="1" parent="u5hN8_Uk0QSI7rOo8P9n-61">
          <mxGeometry y="112" width="160" height="26" as="geometry" />
        </mxCell>
        <mxCell id="u5hN8_Uk0QSI7rOo8P9n-116" style="edgeStyle=orthogonalEdgeStyle;rounded=0;orthogonalLoop=1;jettySize=auto;html=1;entryX=1;entryY=0.5;entryDx=0;entryDy=0;exitX=0;exitY=0.5;exitDx=0;exitDy=0;" edge="1" parent="1" source="u5hN8_Uk0QSI7rOo8P9n-108" target="u5hN8_Uk0QSI7rOo8P9n-93">
          <mxGeometry relative="1" as="geometry" />
        </mxCell>
        <mxCell id="u5hN8_Uk0QSI7rOo8P9n-129" value="ServiÃ§o" style="edgeLabel;html=1;align=center;verticalAlign=middle;resizable=0;points=[];" vertex="1" connectable="0" parent="u5hN8_Uk0QSI7rOo8P9n-116">
          <mxGeometry x="0.3892" y="1" relative="1" as="geometry">
            <mxPoint as="offset" />
          </mxGeometry>
        </mxCell>
        <mxCell id="u5hN8_Uk0QSI7rOo8P9n-123" value="&amp;lt;&amp;lt;enum&amp;gt;&amp;gt;&lt;br&gt;AtendimentoTipo" style="swimlane;fontStyle=1;align=center;verticalAlign=top;childLayout=stackLayout;horizontal=1;startSize=40;horizontalStack=0;resizeParent=1;resizeParentMax=0;resizeLast=0;collapsible=1;marginBottom=0;whiteSpace=wrap;html=1;fillColor=#ffe6cc;strokeColor=#d79b00;" vertex="1" parent="1">
          <mxGeometry x="560" y="274" width="160" height="152" as="geometry" />
        </mxCell>
        <mxCell id="u5hN8_Uk0QSI7rOo8P9n-124" value="- CONSULTA: Enum" style="text;strokeColor=none;fillColor=none;align=left;verticalAlign=top;spacingLeft=4;spacingRight=4;overflow=hidden;rotatable=0;points=[[0,0.5],[1,0.5]];portConstraint=eastwest;whiteSpace=wrap;html=1;" vertex="1" parent="u5hN8_Uk0QSI7rOo8P9n-123">
          <mxGeometry y="40" width="160" height="26" as="geometry" />
        </mxCell>
        <mxCell id="u5hN8_Uk0QSI7rOo8P9n-125" value="- EXAME: Enum" style="text;strokeColor=none;fillColor=none;align=left;verticalAlign=top;spacingLeft=4;spacingRight=4;overflow=hidden;rotatable=0;points=[[0,0.5],[1,0.5]];portConstraint=eastwest;whiteSpace=wrap;html=1;" vertex="1" parent="u5hN8_Uk0QSI7rOo8P9n-123">
          <mxGeometry y="66" width="160" height="26" as="geometry" />
        </mxCell>
        <mxCell id="u5hN8_Uk0QSI7rOo8P9n-126" value="- HIGIENIZACAO: Enum" style="text;strokeColor=none;fillColor=none;align=left;verticalAlign=top;spacingLeft=4;spacingRight=4;overflow=hidden;rotatable=0;points=[[0,0.5],[1,0.5]];portConstraint=eastwest;whiteSpace=wrap;html=1;" vertex="1" parent="u5hN8_Uk0QSI7rOo8P9n-123">
          <mxGeometry y="92" width="160" height="26" as="geometry" />
        </mxCell>
        <mxCell id="u5hN8_Uk0QSI7rOo8P9n-127" value="- VACINACAO: Enum" style="text;strokeColor=none;fillColor=none;align=left;verticalAlign=top;spacingLeft=4;spacingRight=4;overflow=hidden;rotatable=0;points=[[0,0.5],[1,0.5]];portConstraint=eastwest;whiteSpace=wrap;html=1;" vertex="1" parent="u5hN8_Uk0QSI7rOo8P9n-123">
          <mxGeometry y="118" width="160" height="26" as="geometry" />
        </mxCell>
        <mxCell id="u5hN8_Uk0QSI7rOo8P9n-128" value="" style="line;strokeWidth=1;fillColor=none;align=left;verticalAlign=middle;spacingTop=-1;spacingLeft=3;spacingRight=3;rotatable=0;labelPosition=right;points=[];portConstraint=eastwest;strokeColor=inherit;" vertex="1" parent="u5hN8_Uk0QSI7rOo8P9n-123">
          <mxGeometry y="144" width="160" height="8" as="geometry" />
        </mxCell>
        <mxCell id="u5hN8_Uk0QSI7rOo8P9n-130" value="1" style="endArrow=open;html=1;endSize=12;startArrow=diamondThin;startSize=14;startFill=0;edgeStyle=orthogonalEdgeStyle;align=left;verticalAlign=bottom;rounded=0;exitX=-0.009;exitY=0.165;exitDx=0;exitDy=0;exitPerimeter=0;" edge="1" parent="1" source="u5hN8_Uk0QSI7rOo8P9n-73" target="u5hN8_Uk0QSI7rOo8P9n-40">
          <mxGeometry x="-1" y="3" relative="1" as="geometry">
            <mxPoint x="330" y="330" as="sourcePoint" />
            <mxPoint x="490" y="330" as="targetPoint" />
          </mxGeometry>
        </mxCell>
        <mxCell id="u5hN8_Uk0QSI7rOo8P9n-132" value="1" style="endArrow=open;html=1;endSize=12;startArrow=diamondThin;startSize=14;startFill=0;edgeStyle=orthogonalEdgeStyle;align=left;verticalAlign=bottom;rounded=0;" edge="1" parent="1" source="u5hN8_Uk0QSI7rOo8P9n-73" target="u5hN8_Uk0QSI7rOo8P9n-86">
          <mxGeometry x="-1" y="3" relative="1" as="geometry">
            <mxPoint x="160" y="280" as="sourcePoint" />
            <mxPoint x="20" y="366" as="targetPoint" />
          </mxGeometry>
        </mxCell>
        <mxCell id="u5hN8_Uk0QSI7rOo8P9n-135" value="Ao realizar alguma atendimento, as vezes poderÃ¡ ser ncessÃ¡rio a utilizacaÃ§Ã£o de alguns produtos/serviÃ§os que deverÃ£o ser incluidos no procedimento em breve" style="whiteSpace=wrap;html=1;shape=mxgraph.basic.document;fillColor=#f8cecc;strokeColor=#b85450;" vertex="1" parent="1">
          <mxGeometry x="500" y="-180" width="173" height="158" as="geometry" />
        </mxCell>
        <mxCell id="u5hN8_Uk0QSI7rOo8P9n-136" value="Considerando a delimitaÃ§Ã£o de contexto (bounded context):&amp;nbsp;&lt;br&gt;Um cadastro se torna um solicitante e animal um paciente no contexto de serviÃ§os de atendimento" style="whiteSpace=wrap;html=1;shape=mxgraph.basic.document;fillColor=#f8cecc;strokeColor=#b85450;" vertex="1" parent="1">
          <mxGeometry x="300" y="-180" width="173" height="158" as="geometry" />
        </mxCell>
        <mxCell id="u5hN8_Uk0QSI7rOo8P9n-138" value="AtendimentoSituacao" style="swimlane;fontStyle=1;align=center;verticalAlign=top;childLayout=stackLayout;horizontal=1;startSize=40;horizontalStack=0;resizeParent=1;resizeParentMax=0;resizeLast=0;collapsible=1;marginBottom=0;whiteSpace=wrap;html=1;fillColor=#ffe6cc;strokeColor=#d79b00;" vertex="1" parent="1">
          <mxGeometry x="850" y="47" width="160" height="100" as="geometry" />
        </mxCell>
        <mxCell id="u5hN8_Uk0QSI7rOo8P9n-139" value="- created_at: datetime" style="text;strokeColor=none;fillColor=none;align=left;verticalAlign=top;spacingLeft=4;spacingRight=4;overflow=hidden;rotatable=0;points=[[0,0.5],[1,0.5]];portConstraint=eastwest;whiteSpace=wrap;html=1;" vertex="1" parent="u5hN8_Uk0QSI7rOo8P9n-138">
          <mxGeometry y="40" width="160" height="26" as="geometry" />
        </mxCell>
        <mxCell id="u5hN8_Uk0QSI7rOo8P9n-144" value="- update_at: datetime" style="text;strokeColor=none;fillColor=none;align=left;verticalAlign=top;spacingLeft=4;spacingRight=4;overflow=hidden;rotatable=0;points=[[0,0.5],[1,0.5]];portConstraint=eastwest;whiteSpace=wrap;html=1;" vertex="1" parent="u5hN8_Uk0QSI7rOo8P9n-138">
          <mxGeometry y="66" width="160" height="26" as="geometry" />
        </mxCell>
        <mxCell id="u5hN8_Uk0QSI7rOo8P9n-143" value="" style="line;strokeWidth=1;fillColor=none;align=left;verticalAlign=middle;spacingTop=-1;spacingLeft=3;spacingRight=3;rotatable=0;labelPosition=right;points=[];portConstraint=eastwest;strokeColor=inherit;" vertex="1" parent="u5hN8_Uk0QSI7rOo8P9n-138">
          <mxGeometry y="92" width="160" height="8" as="geometry" />
        </mxCell>
      </root>
    </mxGraphModel>
  </diagram>
</mxfile>
